<?xml version="1.0" encoding="UTF-8" standalone="no"?>
<!-- Created with Inkscape (http://www.inkscape.org/) -->

<svg
   xmlns:dc="http://purl.org/dc/elements/1.1/"
   xmlns:cc="http://creativecommons.org/ns#"
   xmlns:rdf="http://www.w3.org/1999/02/22-rdf-syntax-ns#"
   xmlns:svg="http://www.w3.org/2000/svg"
   xmlns="http://www.w3.org/2000/svg"
   xmlns:sodipodi="http://sodipodi.sourceforge.net/DTD/sodipodi-0.dtd"
   xmlns:inkscape="http://www.inkscape.org/namespaces/inkscape"
   width="138"
   height="200"
   viewBox="0 0 36.512498 52.916666"
   version="1.1"
   id="svg2260"
   inkscape:version="0.92.5 (2060ec1f9f, 2020-04-08)"
   sodipodi:docname="algorave.svg">
  <defs
     id="defs2254">
    <clipPath
       clipPathUnits="userSpaceOnUse"
       id="clipPath124">
      <path
         d="M 0,1190.64 H 821.28 V 0 H 0 Z"
         id="path122"
         inkscape:connector-curvature="0" />
    </clipPath>
    <clipPath
       clipPathUnits="userSpaceOnUse"
       id="clipPath144">
      <path
         d="M 0,1190.64 H 821.28 V 0 H 0 Z"
         id="path142"
         inkscape:connector-curvature="0" />
    </clipPath>
    <clipPath
       clipPathUnits="userSpaceOnUse"
       id="clipPath168">
      <path
         d="M 0,1190.64 H 821.28 V 0 H 0 Z"
         id="path166"
         inkscape:connector-curvature="0" />
    </clipPath>
    <clipPath
       clipPathUnits="userSpaceOnUse"
       id="clipPath200">
      <path
         d="M 0,1190.64 H 821.28 V 0 H 0 Z"
         id="path198"
         inkscape:connector-curvature="0" />
    </clipPath>
    <clipPath
       clipPathUnits="userSpaceOnUse"
       id="clipPath224">
      <path
         d="M 0,1190.64 H 821.28 V 0 H 0 Z"
         id="path222"
         inkscape:connector-curvature="0" />
    </clipPath>
    <clipPath
       clipPathUnits="userSpaceOnUse"
       id="clipPath244">
      <path
         d="M 0,1190.64 H 821.28 V 0 H 0 Z"
         id="path242"
         inkscape:connector-curvature="0" />
    </clipPath>
    <clipPath
       clipPathUnits="userSpaceOnUse"
       id="clipPath264">
      <path
         d="M 0,1190.64 H 821.28 V 0 H 0 Z"
         id="path262"
         inkscape:connector-curvature="0" />
    </clipPath>
    <clipPath
       clipPathUnits="userSpaceOnUse"
       id="clipPath296">
      <path
         d="M 0,1190.64 H 821.28 V 0 H 0 Z"
         id="path294"
         inkscape:connector-curvature="0" />
    </clipPath>
    <clipPath
       clipPathUnits="userSpaceOnUse"
       id="clipPath316">
      <path
         d="M 0,1190.64 H 821.28 V 0 H 0 Z"
         id="path314"
         inkscape:connector-curvature="0" />
    </clipPath>
    <clipPath
       clipPathUnits="userSpaceOnUse"
       id="clipPath348">
      <path
         d="M 0,1190.64 H 821.28 V 0 H 0 Z"
         id="path346"
         inkscape:connector-curvature="0" />
    </clipPath>
    <clipPath
       clipPathUnits="userSpaceOnUse"
       id="clipPath368">
      <path
         d="M 0,1190.64 H 821.28 V 0 H 0 Z"
         id="path366"
         inkscape:connector-curvature="0" />
    </clipPath>
    <clipPath
       clipPathUnits="userSpaceOnUse"
       id="clipPath392">
      <path
         d="M 0,1190.64 H 821.28 V 0 H 0 Z"
         id="path390"
         inkscape:connector-curvature="0" />
    </clipPath>
    <clipPath
       clipPathUnits="userSpaceOnUse"
       id="clipPath432">
      <path
         d="M 0,1190.64 H 821.28 V 0 H 0 Z"
         id="path430"
         inkscape:connector-curvature="0" />
    </clipPath>
    <clipPath
       clipPathUnits="userSpaceOnUse"
       id="clipPath452">
      <path
         d="M 0,1190.64 H 821.28 V 0 H 0 Z"
         id="path450"
         inkscape:connector-curvature="0" />
    </clipPath>
    <clipPath
       clipPathUnits="userSpaceOnUse"
       id="clipPath492">
      <path
         d="M 0,1190.64 H 821.28 V 0 H 0 Z"
         id="path490"
         inkscape:connector-curvature="0" />
    </clipPath>
    <clipPath
       clipPathUnits="userSpaceOnUse"
       id="clipPath508">
      <path
         d="M 0,1190.64 H 821.28 V 0 H 0 Z"
         id="path506"
         inkscape:connector-curvature="0" />
    </clipPath>
    <clipPath
       clipPathUnits="userSpaceOnUse"
       id="clipPath528">
      <path
         d="M 0,1190.64 H 821.28 V 0 H 0 Z"
         id="path526"
         inkscape:connector-curvature="0" />
    </clipPath>
    <clipPath
       clipPathUnits="userSpaceOnUse"
       id="clipPath552">
      <path
         d="M 0,1190.64 H 821.28 V 0 H 0 Z"
         id="path550"
         inkscape:connector-curvature="0" />
    </clipPath>
    <clipPath
       clipPathUnits="userSpaceOnUse"
       id="clipPath596">
      <path
         d="M 0,1190.64 H 821.28 V 0 H 0 Z"
         id="path594"
         inkscape:connector-curvature="0" />
    </clipPath>
    <clipPath
       clipPathUnits="userSpaceOnUse"
       id="clipPath616">
      <path
         d="M 0,1190.64 H 821.28 V 0 H 0 Z"
         id="path614"
         inkscape:connector-curvature="0" />
    </clipPath>
    <clipPath
       clipPathUnits="userSpaceOnUse"
       id="clipPath636">
      <path
         d="M 0,1190.64 H 821.28 V 0 H 0 Z"
         id="path634"
         inkscape:connector-curvature="0" />
    </clipPath>
    <clipPath
       clipPathUnits="userSpaceOnUse"
       id="clipPath652">
      <path
         d="M 0,1190.64 H 821.28 V 0 H 0 Z"
         id="path650"
         inkscape:connector-curvature="0" />
    </clipPath>
    <clipPath
       clipPathUnits="userSpaceOnUse"
       id="clipPath672">
      <path
         d="M 0,1190.64 H 821.28 V 0 H 0 Z"
         id="path670"
         inkscape:connector-curvature="0" />
    </clipPath>
    <clipPath
       clipPathUnits="userSpaceOnUse"
       id="clipPath704">
      <path
         d="M 0,1190.64 H 821.28 V 0 H 0 Z"
         id="path702"
         inkscape:connector-curvature="0" />
    </clipPath>
    <clipPath
       clipPathUnits="userSpaceOnUse"
       id="clipPath744">
      <path
         d="M 0,1190.64 H 821.28 V 0 H 0 Z"
         id="path742"
         inkscape:connector-curvature="0" />
    </clipPath>
    <clipPath
       clipPathUnits="userSpaceOnUse"
       id="clipPath760">
      <path
         d="M 0,1190.64 H 821.28 V 0 H 0 Z"
         id="path758"
         inkscape:connector-curvature="0" />
    </clipPath>
    <clipPath
       clipPathUnits="userSpaceOnUse"
       id="clipPath776">
      <path
         d="M 0,1190.64 H 821.28 V 0 H 0 Z"
         id="path774"
         inkscape:connector-curvature="0" />
    </clipPath>
    <clipPath
       clipPathUnits="userSpaceOnUse"
       id="clipPath808">
      <path
         d="M 0,1190.64 H 821.28 V 0 H 0 Z"
         id="path806"
         inkscape:connector-curvature="0" />
    </clipPath>
    <clipPath
       clipPathUnits="userSpaceOnUse"
       id="clipPath900">
      <path
         d="M 0,1190.64 H 821.28 V 0 H 0 Z"
         id="path898"
         inkscape:connector-curvature="0" />
    </clipPath>
    <clipPath
       clipPathUnits="userSpaceOnUse"
       id="clipPath932">
      <path
         d="M 0,1190.64 H 821.28 V 0 H 0 Z"
         id="path930"
         inkscape:connector-curvature="0" />
    </clipPath>
    <clipPath
       clipPathUnits="userSpaceOnUse"
       id="clipPath948">
      <path
         d="M 0,1190.64 H 821.28 V 0 H 0 Z"
         id="path946"
         inkscape:connector-curvature="0" />
    </clipPath>
    <clipPath
       clipPathUnits="userSpaceOnUse"
       id="clipPath964">
      <path
         d="M 0,1190.64 H 821.28 V 0 H 0 Z"
         id="path962"
         inkscape:connector-curvature="0" />
    </clipPath>
    <clipPath
       clipPathUnits="userSpaceOnUse"
       id="clipPath992">
      <path
         d="M 0,1190.64 H 821.28 V 0 H 0 Z"
         id="path990"
         inkscape:connector-curvature="0" />
    </clipPath>
    <clipPath
       clipPathUnits="userSpaceOnUse"
       id="clipPath1020">
      <path
         d="M 0,1190.64 H 821.28 V 0 H 0 Z"
         id="path1018"
         inkscape:connector-curvature="0" />
    </clipPath>
    <clipPath
       clipPathUnits="userSpaceOnUse"
       id="clipPath1070">
      <path
         d="M 0,1190.64 H 821.28 V 0 H 0 Z"
         id="path1068"
         inkscape:connector-curvature="0" />
    </clipPath>
    <clipPath
       clipPathUnits="userSpaceOnUse"
       id="clipPath1078">
      <path
         d="m 110.453,111.312 h 89.86 V 33.6631 h -89.86 z"
         id="path1076"
         inkscape:connector-curvature="0" />
    </clipPath>
    <clipPath
       clipPathUnits="userSpaceOnUse"
       id="clipPath1094">
      <path
         d="M 0,1190.64 H 821.28 V 0 H 0 Z"
         id="path1092"
         inkscape:connector-curvature="0" />
    </clipPath>
    <clipPath
       clipPathUnits="userSpaceOnUse"
       id="clipPath1106">
      <path
         d="M 0,1190.64 H 821.28 V 0 H 0 Z"
         id="path1104"
         inkscape:connector-curvature="0" />
    </clipPath>
    <clipPath
       clipPathUnits="userSpaceOnUse"
       id="clipPath1114">
      <path
         d="M 427.841,867.636 H 705.888 V 763.809 H 427.841 Z"
         id="path1112"
         inkscape:connector-curvature="0" />
    </clipPath>
    <clipPath
       clipPathUnits="userSpaceOnUse"
       id="clipPath808-1">
      <path
         d="M 0,1190.64 H 821.28 V 0 H 0 Z"
         id="path806-2"
         inkscape:connector-curvature="0" />
    </clipPath>
    <clipPath
       clipPathUnits="userSpaceOnUse"
       id="clipPath432-7">
      <path
         d="M 0,1190.64 H 821.28 V 0 H 0 Z"
         id="path430-0"
         inkscape:connector-curvature="0" />
    </clipPath>
    <clipPath
       clipPathUnits="userSpaceOnUse"
       id="clipPath244-9">
      <path
         d="M 0,1190.64 H 821.28 V 0 H 0 Z"
         id="path242-3"
         inkscape:connector-curvature="0" />
    </clipPath>
  </defs>
  <sodipodi:namedview
     id="base"
     pagecolor="#ffffff"
     bordercolor="#666666"
     borderopacity="1.0"
     inkscape:pageopacity="0.0"
     inkscape:pageshadow="2"
     inkscape:zoom="2.0000001"
     inkscape:cx="-44.606732"
     inkscape:cy="45.886263"
     inkscape:document-units="mm"
     inkscape:current-layer="layer1"
     showgrid="false"
     units="px"
     inkscape:window-width="1920"
     inkscape:window-height="1030"
     inkscape:window-x="0"
     inkscape:window-y="0"
     inkscape:window-maximized="1"
     inkscape:snap-bbox="true"
     inkscape:bbox-nodes="true" />
  <metadata
     id="metadata2257">
    <rdf:RDF>
      <cc:Work
         rdf:about="">
        <dc:format>image/svg+xml</dc:format>
        <dc:type
           rdf:resource="http://purl.org/dc/dcmitype/StillImage" />
        <dc:title></dc:title>
      </cc:Work>
    </rdf:RDF>
  </metadata>
  <g
     inkscape:label="Layer 1"
     inkscape:groupmode="layer"
     id="layer1"
     transform="translate(0,-244.08334)">
    <path
       inkscape:connector-curvature="0"
       id="path1098"
       style="fill:#0d01eb;fill-opacity:1;fill-rule:evenodd;stroke:none;stroke-width:0.35277778"
       d="m 5.7370499,283.10374 c 1.6831,-2.97145 3.3520902,-5.95136 5.0531901,-8.91293 2.4698,-4.29966 4.96288,-8.58626 7.5826,-13.11522 3.95217,6.83507 7.80098,13.49128 11.73727,20.29919 H 8.50636 c 3.31187,-5.71994 6.52603,-11.27231 9.86719,-17.04305 3.01519,5.22499 5.90797,10.23796 8.88612,15.3984 H 11.35751 c 2.34561,-4.0573 4.61786,-7.9883 7.01569,-12.13662 2.0701,3.58669 4.02766,6.9783 6.06742,10.51137 H 14.17726 c 1.38465,-2.39889 2.7178,-4.70782 4.19417,-7.26511 1.12325,1.95157 2.1396,3.71722 3.24732,5.64127 h -4.59987 c 0.37359,-0.64487 0.6978,-1.20544 1.23402,-2.13219 -0.009,0.0346 0.80504,0.49107 0.80504,0.49107 l -0.48401,0.89641 H 20.323 c -0.65476,-1.13771 -1.23649,-2.14912 -1.9498,-3.38843 -0.99519,1.71908 -1.89759,3.27801 -2.8829,4.98052 h 7.62952 c -1.58468,-2.74814 -3.10726,-5.38869 -4.74592,-8.23031 -1.96321,3.39549 -3.80894,6.58742 -5.73581,9.92011 h 13.33958 c -2.5407,-4.40478 -5.01896,-8.70126 -7.60412,-13.1826 -2.90548,5.01368 -5.69948,9.83509 -8.5640299,14.77786 H 28.80378 c -3.45828,-5.98135 -6.87882,-11.89637 -10.42917,-18.03647 -3.84034,6.63681 -7.57485,13.09088 -11.3848501,19.67407 H 31.61859 c -4.41572,-7.64293 -8.76159,-15.16557 -13.22634,-22.89422 -4.67113,8.0144 -9.2551298,15.88099 -13.8394701,23.74688 h -0.81422 c 0,0 0.34678,-0.57467 0.48684,-0.81703 4.5529499,-7.8867 9.1150701,-15.76846 13.6786001,-23.64917 0.11219,-0.19332 0.25436,-0.36936 0.45473,-0.65793 0.20991,0.28999 0.393,0.50059 0.53023,0.73766 4.5279,7.82567 9.05298,15.6531 13.568891,23.48548 0.15663,0.27093 0.213079,0.59937 0.316089,0.90099 z" />
  </g>
</svg>
