<?xml version="1.0" encoding="UTF-8" standalone="no"?>
<!-- Created with Inkscape (http://www.inkscape.org/) -->

<svg
   xmlns:dc="http://purl.org/dc/elements/1.1/"
   xmlns:cc="http://creativecommons.org/ns#"
   xmlns:rdf="http://www.w3.org/1999/02/22-rdf-syntax-ns#"
   xmlns:svg="http://www.w3.org/2000/svg"
   xmlns="http://www.w3.org/2000/svg"
   xmlns:sodipodi="http://sodipodi.sourceforge.net/DTD/sodipodi-0.dtd"
   xmlns:inkscape="http://www.inkscape.org/namespaces/inkscape"
   width="138"
   height="200"
   viewBox="0 0 36.512498 52.916666"
   version="1.1"
   id="svg2260"
   inkscape:version="0.92.5 (2060ec1f9f, 2020-04-08)"
   sodipodi:docname="eulerroom.svg">
  <defs
     id="defs2254">
    <clipPath
       clipPathUnits="userSpaceOnUse"
       id="clipPath124">
      <path
         d="M 0,1190.64 H 821.28 V 0 H 0 Z"
         id="path122"
         inkscape:connector-curvature="0" />
    </clipPath>
    <clipPath
       clipPathUnits="userSpaceOnUse"
       id="clipPath144">
      <path
         d="M 0,1190.64 H 821.28 V 0 H 0 Z"
         id="path142"
         inkscape:connector-curvature="0" />
    </clipPath>
    <clipPath
       clipPathUnits="userSpaceOnUse"
       id="clipPath168">
      <path
         d="M 0,1190.64 H 821.28 V 0 H 0 Z"
         id="path166"
         inkscape:connector-curvature="0" />
    </clipPath>
    <clipPath
       clipPathUnits="userSpaceOnUse"
       id="clipPath200">
      <path
         d="M 0,1190.64 H 821.28 V 0 H 0 Z"
         id="path198"
         inkscape:connector-curvature="0" />
    </clipPath>
    <clipPath
       clipPathUnits="userSpaceOnUse"
       id="clipPath224">
      <path
         d="M 0,1190.64 H 821.28 V 0 H 0 Z"
         id="path222"
         inkscape:connector-curvature="0" />
    </clipPath>
    <clipPath
       clipPathUnits="userSpaceOnUse"
       id="clipPath244">
      <path
         d="M 0,1190.64 H 821.28 V 0 H 0 Z"
         id="path242"
         inkscape:connector-curvature="0" />
    </clipPath>
    <clipPath
       clipPathUnits="userSpaceOnUse"
       id="clipPath264">
      <path
         d="M 0,1190.64 H 821.28 V 0 H 0 Z"
         id="path262"
         inkscape:connector-curvature="0" />
    </clipPath>
    <clipPath
       clipPathUnits="userSpaceOnUse"
       id="clipPath296">
      <path
         d="M 0,1190.64 H 821.28 V 0 H 0 Z"
         id="path294"
         inkscape:connector-curvature="0" />
    </clipPath>
    <clipPath
       clipPathUnits="userSpaceOnUse"
       id="clipPath316">
      <path
         d="M 0,1190.64 H 821.28 V 0 H 0 Z"
         id="path314"
         inkscape:connector-curvature="0" />
    </clipPath>
    <clipPath
       clipPathUnits="userSpaceOnUse"
       id="clipPath348">
      <path
         d="M 0,1190.64 H 821.28 V 0 H 0 Z"
         id="path346"
         inkscape:connector-curvature="0" />
    </clipPath>
    <clipPath
       clipPathUnits="userSpaceOnUse"
       id="clipPath368">
      <path
         d="M 0,1190.64 H 821.28 V 0 H 0 Z"
         id="path366"
         inkscape:connector-curvature="0" />
    </clipPath>
    <clipPath
       clipPathUnits="userSpaceOnUse"
       id="clipPath392">
      <path
         d="M 0,1190.64 H 821.28 V 0 H 0 Z"
         id="path390"
         inkscape:connector-curvature="0" />
    </clipPath>
    <clipPath
       clipPathUnits="userSpaceOnUse"
       id="clipPath432">
      <path
         d="M 0,1190.64 H 821.28 V 0 H 0 Z"
         id="path430"
         inkscape:connector-curvature="0" />
    </clipPath>
    <clipPath
       clipPathUnits="userSpaceOnUse"
       id="clipPath452">
      <path
         d="M 0,1190.64 H 821.28 V 0 H 0 Z"
         id="path450"
         inkscape:connector-curvature="0" />
    </clipPath>
    <clipPath
       clipPathUnits="userSpaceOnUse"
       id="clipPath492">
      <path
         d="M 0,1190.64 H 821.28 V 0 H 0 Z"
         id="path490"
         inkscape:connector-curvature="0" />
    </clipPath>
    <clipPath
       clipPathUnits="userSpaceOnUse"
       id="clipPath508">
      <path
         d="M 0,1190.64 H 821.28 V 0 H 0 Z"
         id="path506"
         inkscape:connector-curvature="0" />
    </clipPath>
    <clipPath
       clipPathUnits="userSpaceOnUse"
       id="clipPath528">
      <path
         d="M 0,1190.64 H 821.28 V 0 H 0 Z"
         id="path526"
         inkscape:connector-curvature="0" />
    </clipPath>
    <clipPath
       clipPathUnits="userSpaceOnUse"
       id="clipPath552">
      <path
         d="M 0,1190.64 H 821.28 V 0 H 0 Z"
         id="path550"
         inkscape:connector-curvature="0" />
    </clipPath>
    <clipPath
       clipPathUnits="userSpaceOnUse"
       id="clipPath596">
      <path
         d="M 0,1190.64 H 821.28 V 0 H 0 Z"
         id="path594"
         inkscape:connector-curvature="0" />
    </clipPath>
    <clipPath
       clipPathUnits="userSpaceOnUse"
       id="clipPath616">
      <path
         d="M 0,1190.64 H 821.28 V 0 H 0 Z"
         id="path614"
         inkscape:connector-curvature="0" />
    </clipPath>
    <clipPath
       clipPathUnits="userSpaceOnUse"
       id="clipPath636">
      <path
         d="M 0,1190.64 H 821.28 V 0 H 0 Z"
         id="path634"
         inkscape:connector-curvature="0" />
    </clipPath>
    <clipPath
       clipPathUnits="userSpaceOnUse"
       id="clipPath652">
      <path
         d="M 0,1190.64 H 821.28 V 0 H 0 Z"
         id="path650"
         inkscape:connector-curvature="0" />
    </clipPath>
    <clipPath
       clipPathUnits="userSpaceOnUse"
       id="clipPath672">
      <path
         d="M 0,1190.64 H 821.28 V 0 H 0 Z"
         id="path670"
         inkscape:connector-curvature="0" />
    </clipPath>
    <clipPath
       clipPathUnits="userSpaceOnUse"
       id="clipPath704">
      <path
         d="M 0,1190.64 H 821.28 V 0 H 0 Z"
         id="path702"
         inkscape:connector-curvature="0" />
    </clipPath>
    <clipPath
       clipPathUnits="userSpaceOnUse"
       id="clipPath744">
      <path
         d="M 0,1190.64 H 821.28 V 0 H 0 Z"
         id="path742"
         inkscape:connector-curvature="0" />
    </clipPath>
    <clipPath
       clipPathUnits="userSpaceOnUse"
       id="clipPath760">
      <path
         d="M 0,1190.64 H 821.28 V 0 H 0 Z"
         id="path758"
         inkscape:connector-curvature="0" />
    </clipPath>
    <clipPath
       clipPathUnits="userSpaceOnUse"
       id="clipPath776">
      <path
         d="M 0,1190.64 H 821.28 V 0 H 0 Z"
         id="path774"
         inkscape:connector-curvature="0" />
    </clipPath>
    <clipPath
       clipPathUnits="userSpaceOnUse"
       id="clipPath808">
      <path
         d="M 0,1190.64 H 821.28 V 0 H 0 Z"
         id="path806"
         inkscape:connector-curvature="0" />
    </clipPath>
    <clipPath
       clipPathUnits="userSpaceOnUse"
       id="clipPath900">
      <path
         d="M 0,1190.64 H 821.28 V 0 H 0 Z"
         id="path898"
         inkscape:connector-curvature="0" />
    </clipPath>
    <clipPath
       clipPathUnits="userSpaceOnUse"
       id="clipPath932">
      <path
         d="M 0,1190.64 H 821.28 V 0 H 0 Z"
         id="path930"
         inkscape:connector-curvature="0" />
    </clipPath>
    <clipPath
       clipPathUnits="userSpaceOnUse"
       id="clipPath948">
      <path
         d="M 0,1190.64 H 821.28 V 0 H 0 Z"
         id="path946"
         inkscape:connector-curvature="0" />
    </clipPath>
    <clipPath
       clipPathUnits="userSpaceOnUse"
       id="clipPath964">
      <path
         d="M 0,1190.64 H 821.28 V 0 H 0 Z"
         id="path962"
         inkscape:connector-curvature="0" />
    </clipPath>
    <clipPath
       clipPathUnits="userSpaceOnUse"
       id="clipPath992">
      <path
         d="M 0,1190.64 H 821.28 V 0 H 0 Z"
         id="path990"
         inkscape:connector-curvature="0" />
    </clipPath>
    <clipPath
       clipPathUnits="userSpaceOnUse"
       id="clipPath1020">
      <path
         d="M 0,1190.64 H 821.28 V 0 H 0 Z"
         id="path1018"
         inkscape:connector-curvature="0" />
    </clipPath>
    <clipPath
       clipPathUnits="userSpaceOnUse"
       id="clipPath1070">
      <path
         d="M 0,1190.64 H 821.28 V 0 H 0 Z"
         id="path1068"
         inkscape:connector-curvature="0" />
    </clipPath>
    <clipPath
       clipPathUnits="userSpaceOnUse"
       id="clipPath1078">
      <path
         d="m 110.453,111.312 h 89.86 V 33.6631 h -89.86 z"
         id="path1076"
         inkscape:connector-curvature="0" />
    </clipPath>
    <clipPath
       clipPathUnits="userSpaceOnUse"
       id="clipPath1094">
      <path
         d="M 0,1190.64 H 821.28 V 0 H 0 Z"
         id="path1092"
         inkscape:connector-curvature="0" />
    </clipPath>
    <clipPath
       clipPathUnits="userSpaceOnUse"
       id="clipPath1106">
      <path
         d="M 0,1190.64 H 821.28 V 0 H 0 Z"
         id="path1104"
         inkscape:connector-curvature="0" />
    </clipPath>
    <clipPath
       clipPathUnits="userSpaceOnUse"
       id="clipPath1114">
      <path
         d="M 427.841,867.636 H 705.888 V 763.809 H 427.841 Z"
         id="path1112"
         inkscape:connector-curvature="0" />
    </clipPath>
    <clipPath
       clipPathUnits="userSpaceOnUse"
       id="clipPath808-1">
      <path
         d="M 0,1190.64 H 821.28 V 0 H 0 Z"
         id="path806-2"
         inkscape:connector-curvature="0" />
    </clipPath>
    <clipPath
       clipPathUnits="userSpaceOnUse"
       id="clipPath432-7">
      <path
         d="M 0,1190.64 H 821.28 V 0 H 0 Z"
         id="path430-0"
         inkscape:connector-curvature="0" />
    </clipPath>
    <clipPath
       clipPathUnits="userSpaceOnUse"
       id="clipPath244-9">
      <path
         d="M 0,1190.64 H 821.28 V 0 H 0 Z"
         id="path242-3"
         inkscape:connector-curvature="0" />
    </clipPath>
  </defs>
  <sodipodi:namedview
     id="base"
     pagecolor="#ffffff"
     bordercolor="#666666"
     borderopacity="1.0"
     inkscape:pageopacity="0.0"
     inkscape:pageshadow="2"
     inkscape:zoom="2.0000001"
     inkscape:cx="-44.606732"
     inkscape:cy="45.886263"
     inkscape:document-units="mm"
     inkscape:current-layer="layer1"
     showgrid="false"
     units="px"
     inkscape:window-width="1920"
     inkscape:window-height="1030"
     inkscape:window-x="0"
     inkscape:window-y="0"
     inkscape:window-maximized="1"
     inkscape:snap-bbox="true"
     inkscape:bbox-nodes="true" />
  <metadata
     id="metadata2257">
    <rdf:RDF>
      <cc:Work
         rdf:about="">
        <dc:format>image/svg+xml</dc:format>
        <dc:type
           rdf:resource="http://purl.org/dc/dcmitype/StillImage" />
        <dc:title></dc:title>
      </cc:Work>
    </rdf:RDF>
  </metadata>
  <g
     inkscape:label="Layer 1"
     inkscape:groupmode="layer"
     id="layer1"
     transform="translate(0,-244.08334)">
    <path
       d="m 33.713907,265.65849 c 0.144639,0.0808 0.37747,0.11994 0.366889,0.31715 -0.007,0.20849 -0.23636,0.28257 -0.398639,0.36018 -1.14653,0.55739 -2.215441,1.24531 -3.38314,1.92264 0.963078,0.55739 1.86972,1.0795 2.77636,1.60161 0.243419,0.14111 0.49389,0.27482 0.737309,0.41628 0.388051,0.22225 0.391581,0.29633 0.01061,0.51506 -1.04775,0.60325 -2.09903,1.20297 -3.14678,1.80622 -0.10583,0.06 -0.239889,0.0847 -0.31397,0.27128 1.09361,0.6283 2.194279,1.25977 3.294951,1.88772 0.162269,0.0917 0.409221,0.11994 0.423328,0.33126 0.01061,0.22613 -0.246948,0.25788 -0.398639,0.34607 -2.995078,1.73214 -5.98664,3.46075 -8.98172,5.18584 -2.0567,1.1818 -4.12045,2.35302 -6.17714,3.53483 -0.26458,0.15522 -0.47272,0.0706 -0.70203,-0.0635 -2.1202,-1.22061 -4.24745,-2.4451 -6.371181,-3.66572 -2.8222201,-1.61572 -5.6444399,-3.23109 -8.4596099,-4.85739 -0.21166,-0.11995 -0.55738,-0.1838 -0.55386,-0.45509 0.007,-0.28222 0.34573,-0.37394 0.5715,-0.50447 1.01953,-0.58208 2.0461101,-1.15358 3.1608899,-1.778 -0.46214,-0.27516 -0.84666,-0.50482 -1.2347199,-0.72672 -0.74789,-0.43039 -1.50283,-0.85055 -2.25072,-1.28411 -0.37747,-0.21872 -0.37042,-0.35278 0.0247,-0.58244 1.03364,-0.59584 2.07081,-1.18886 3.1044499,-1.7847 0.0917,-0.0529 0.2116601,-0.0776 0.2610501,-0.25788 -0.96661,-0.54998 -1.9438,-1.10737 -2.92453,-1.66158 -0.27163,-0.15135 -0.68438,-0.25365 -0.6985,-0.56057 -0.0106,-0.29633 0.4057,-0.38453 0.65617,-0.53269 2.09197,-1.21709 4.1839498,-2.43452 6.2794398,-3.63749 2.2189801,-1.27671 4.4485311,-2.53965 6.6710311,-3.80965 0.60325,-0.3422 1.20297,-0.68086 1.79917,-1.03364 0.254,-0.15169 0.47272,-0.15169 0.74083,0 3.48545,2.00695 6.97795,4.00368 10.466919,6.00393 1.55575,0.89288 3.10092,1.79211 4.649611,2.69557 m -3.95817,3.84175 c 0.067,-0.0392 0.137589,-0.13053 0.0459,-0.17992 -0.278691,-0.14816 -0.525629,-0.46566 -0.889,-0.26458 -0.77963,0.43039 -1.54516,0.88547 -2.31775,1.3335 -0.0952,0.0561 -0.20813,0.14111 -0.0811,0.254 0.17991,0.14817 0.39158,0.254 0.6103,0.31397 0.0423,-0.007 0.0776,-0.007 0.10231,-0.0212 0.84314,-0.47661 1.686269,-0.9525 2.529409,-1.43581 m -3.026829,-3.28824 c 0.19403,0.11324 0.40217,0.23283 0.62442,0.10971 0.83961,-0.4766 1.66864,-0.96343 2.585861,-1.4926 -3.891141,-2.24331 -7.690561,-4.43054 -11.585221,-6.67456 0,0.60713 -0.0106,1.09009 0.004,1.57727 0.0106,0.36689 -0.127,0.60678 -0.45861,0.79728 -2.88925,1.65806 -5.76791,3.32987 -8.6501101,4.99886 -0.89253,0.51506 -1.78505,1.03011 -2.6916903,1.55575 0.4727202,0.4512 0.8925303,0.46532 1.4005303,0.1517 1.07244,-0.65652 2.1731101,-1.26295 3.2631901,-1.89124 2.20486,-1.26965 4.41325,-2.53965 6.62164,-3.80648 0.18344,-0.10548 0.35278,-0.25364 0.60325,-0.10901 1.80622,1.0474 3.62303,2.08139 5.43278,3.12562 0.9525,0.55033 1.90147,1.10772 2.85044,1.6577 m -3.89114,2.31105 c 0.14464,0.0811 0.28575,0.23248 0.47272,0.12347 0.86784,-0.49424 1.73214,-0.99519 2.67053,-1.53106 -2.5788,-1.48519 -5.07294,-2.92453 -7.62705,-4.39914 0,0.59937 -0.007,1.11125 0.004,1.62278 0.007,0.33161 -0.10583,0.55739 -0.40922,0.72637 -1.29469,0.73766 -2.5788,1.49613 -3.8735,2.24402 -1.07244,0.62054 -2.15194,1.23472 -3.22792,1.85914 -0.127,0.0741 -0.40216,0.16228 -0.15169,0.35983 0.26106,0.21132 0.55386,0.40922 0.93486,0.16228 0.59267,-0.38806 1.19945,-0.75142 1.81328,-1.10067 1.48519,-0.85054 2.9845,-1.67569 4.46617,-2.53647 0.24694,-0.14111 0.39863,-0.127 0.63147,0.007 1.42522,0.83255 2.86103,1.64747 4.29683,2.46239 m -4.21217,6.44172 c -0.29986,0.17286 -0.52563,0.16228 -0.81844,-0.007 -1.41111,-0.82197 -2.83633,-1.62243 -4.25097,-2.43734 -0.19403,-0.11289 -0.34925,-0.14111 -0.55739,-0.018 -0.744361,0.44097 -1.495781,0.86465 -2.250721,1.28446 -0.23989,0.13053 -0.2152,0.22895 -0.004,0.34572 0.39511,0.2219 0.79728,0.44097 1.18886,0.66675 1.96144,1.12536 3.91936,2.25425 5.87375,3.38667 0.23636,0.13723 0.34219,0.1023 0.33867,-0.18345 -0.007,-0.3175 0.0529,-0.64205 -0.0106,-0.94227 -0.15169,-0.73342 0.26811,-1.07914 0.8255,-1.37548 2.27542,-1.20297 4.46617,-2.56116 6.70984,-3.82058 0.0811,-0.0423 0.17639,-0.0706 0.22225,-0.24694 -0.0212,-0.0109 -0.0811,-0.0353 -0.13053,-0.0709 -0.33867,-0.23954 -0.635,-0.35948 -1.06539,-0.10231 -2.01436,1.19239 -4.05342,2.33892 -6.07131,3.52108 m -0.11994,4.64961 c -0.1905,0.11289 -0.32808,0.11959 -0.51506,0.0106 -0.8008,-0.46249 -1.61219,-0.91369 -2.413,-1.37618 -1.96144,-1.12854 -3.91936,-2.26448 -5.8772701,-3.39373 -0.15875,-0.0882 -0.32456,-0.25364 -0.52211,-0.14428 -0.87136,0.48683 -1.73567,0.98778 -2.65995,1.51694 0.1516999,0.0949 0.2257801,0.14464 0.3069199,0.1905 2.1731101,1.25907 4.3497502,2.51884 6.5263902,3.77472 1.47108,0.84985 2.94569,1.68593 4.40972,2.54353 0.31397,0.17992 0.40217,0.127 0.38805,-0.22578 -0.0176,-0.42368 0.0212,-0.85372 -0.0176,-1.27352 -0.0282,-0.33161 0.0882,-0.51894 0.37041,-0.68122 2.97039,-1.70003 5.93725,-3.41101 8.90411,-5.12198 0.8255,-0.4766 1.647481,-0.95603 2.49061,-1.44991 -0.733769,-0.50095 -0.740831,-0.51506 -1.4358,-0.11995 -0.87489,0.49389 -1.73214,1.016 -2.6035,1.51695 -2.45181,1.41111 -4.90361,2.81516 -7.35189,4.23333 m -0.16581,-11.68047 c 0.0176,1.6263 0.22931,1.36489 -1.17122,2.16958 -0.88547,0.508 -1.77094,1.00894 -2.75872,1.56986 1.21356,0.69145 2.32833,1.32645 3.44311,1.96497 0.24342,0.13759 0.29633,0.0385 0.29281,-0.19438 -0.007,-0.45508 0.0106,-0.91369 -0.004,-1.36878 -0.0106,-0.2995 0.0882,-0.49353 0.35983,-0.64558 0.99836,-0.56056 1.98967,-1.13912 2.98097,-1.71415 0.15523,-0.0917 0.3422,-0.15204 0.45509,-0.36688 -1.02306,-0.58914 -2.03906,-1.17828 -3.05859,-1.76037 -0.14463,-0.0811 -0.2928,-0.2614 -0.46213,-0.16933 -0.21167,0.11289 -0.0811,0.33867 -0.0776,0.51506 m -11.0031291,4.15537 c 0.0529,-0.0173 0.1023,-0.0208 0.14464,-0.0455 0.81844,-0.45861 1.63688,-0.91722 2.4518,-1.37972 0.0847,-0.049 0.1799201,-0.14075 0.0494,-0.20778 -0.2787,-0.14111 -0.52211,-0.4692 -0.889,-0.26811 -0.76553,0.42333 -1.524,0.8643 -2.2824703,1.30527 -0.0882,0.0494 -0.23636,0.14076 -0.1164201,0.24695 0.1834499,0.16228 0.3880601,0.31397 0.6420604,0.3489"
       style="fill:#0d01eb;fill-opacity:1;fill-rule:nonzero;stroke:none;stroke-width:0.35277778"
       id="path1080"
       inkscape:connector-curvature="0" />
  </g>
</svg>
