<?xml version="1.0" encoding="UTF-8" standalone="no"?>
<!-- Created with Inkscape (http://www.inkscape.org/) -->

<svg
   xmlns:dc="http://purl.org/dc/elements/1.1/"
   xmlns:cc="http://creativecommons.org/ns#"
   xmlns:rdf="http://www.w3.org/1999/02/22-rdf-syntax-ns#"
   xmlns:svg="http://www.w3.org/2000/svg"
   xmlns="http://www.w3.org/2000/svg"
   xmlns:sodipodi="http://sodipodi.sourceforge.net/DTD/sodipodi-0.dtd"
   xmlns:inkscape="http://www.inkscape.org/namespaces/inkscape"
   width="414"
   height="200"
   viewBox="0 0 109.53749 52.916666"
   version="1.1"
   id="svg2260"
   inkscape:version="0.92.5 (2060ec1f9f, 2020-04-08)"
   sodipodi:docname="toplap.svg">
  <defs
     id="defs2254">
    <clipPath
       clipPathUnits="userSpaceOnUse"
       id="clipPath124">
      <path
         d="M 0,1190.64 H 821.28 V 0 H 0 Z"
         id="path122"
         inkscape:connector-curvature="0" />
    </clipPath>
    <clipPath
       clipPathUnits="userSpaceOnUse"
       id="clipPath144">
      <path
         d="M 0,1190.64 H 821.28 V 0 H 0 Z"
         id="path142"
         inkscape:connector-curvature="0" />
    </clipPath>
    <clipPath
       clipPathUnits="userSpaceOnUse"
       id="clipPath168">
      <path
         d="M 0,1190.64 H 821.28 V 0 H 0 Z"
         id="path166"
         inkscape:connector-curvature="0" />
    </clipPath>
    <clipPath
       clipPathUnits="userSpaceOnUse"
       id="clipPath200">
      <path
         d="M 0,1190.64 H 821.28 V 0 H 0 Z"
         id="path198"
         inkscape:connector-curvature="0" />
    </clipPath>
    <clipPath
       clipPathUnits="userSpaceOnUse"
       id="clipPath224">
      <path
         d="M 0,1190.64 H 821.28 V 0 H 0 Z"
         id="path222"
         inkscape:connector-curvature="0" />
    </clipPath>
    <clipPath
       clipPathUnits="userSpaceOnUse"
       id="clipPath244">
      <path
         d="M 0,1190.64 H 821.28 V 0 H 0 Z"
         id="path242"
         inkscape:connector-curvature="0" />
    </clipPath>
    <clipPath
       clipPathUnits="userSpaceOnUse"
       id="clipPath264">
      <path
         d="M 0,1190.64 H 821.28 V 0 H 0 Z"
         id="path262"
         inkscape:connector-curvature="0" />
    </clipPath>
    <clipPath
       clipPathUnits="userSpaceOnUse"
       id="clipPath296">
      <path
         d="M 0,1190.64 H 821.28 V 0 H 0 Z"
         id="path294"
         inkscape:connector-curvature="0" />
    </clipPath>
    <clipPath
       clipPathUnits="userSpaceOnUse"
       id="clipPath316">
      <path
         d="M 0,1190.64 H 821.28 V 0 H 0 Z"
         id="path314"
         inkscape:connector-curvature="0" />
    </clipPath>
    <clipPath
       clipPathUnits="userSpaceOnUse"
       id="clipPath348">
      <path
         d="M 0,1190.64 H 821.28 V 0 H 0 Z"
         id="path346"
         inkscape:connector-curvature="0" />
    </clipPath>
    <clipPath
       clipPathUnits="userSpaceOnUse"
       id="clipPath368">
      <path
         d="M 0,1190.64 H 821.28 V 0 H 0 Z"
         id="path366"
         inkscape:connector-curvature="0" />
    </clipPath>
    <clipPath
       clipPathUnits="userSpaceOnUse"
       id="clipPath392">
      <path
         d="M 0,1190.64 H 821.28 V 0 H 0 Z"
         id="path390"
         inkscape:connector-curvature="0" />
    </clipPath>
    <clipPath
       clipPathUnits="userSpaceOnUse"
       id="clipPath432">
      <path
         d="M 0,1190.64 H 821.28 V 0 H 0 Z"
         id="path430"
         inkscape:connector-curvature="0" />
    </clipPath>
    <clipPath
       clipPathUnits="userSpaceOnUse"
       id="clipPath452">
      <path
         d="M 0,1190.64 H 821.28 V 0 H 0 Z"
         id="path450"
         inkscape:connector-curvature="0" />
    </clipPath>
    <clipPath
       clipPathUnits="userSpaceOnUse"
       id="clipPath492">
      <path
         d="M 0,1190.64 H 821.28 V 0 H 0 Z"
         id="path490"
         inkscape:connector-curvature="0" />
    </clipPath>
    <clipPath
       clipPathUnits="userSpaceOnUse"
       id="clipPath508">
      <path
         d="M 0,1190.64 H 821.28 V 0 H 0 Z"
         id="path506"
         inkscape:connector-curvature="0" />
    </clipPath>
    <clipPath
       clipPathUnits="userSpaceOnUse"
       id="clipPath528">
      <path
         d="M 0,1190.64 H 821.28 V 0 H 0 Z"
         id="path526"
         inkscape:connector-curvature="0" />
    </clipPath>
    <clipPath
       clipPathUnits="userSpaceOnUse"
       id="clipPath552">
      <path
         d="M 0,1190.64 H 821.28 V 0 H 0 Z"
         id="path550"
         inkscape:connector-curvature="0" />
    </clipPath>
    <clipPath
       clipPathUnits="userSpaceOnUse"
       id="clipPath596">
      <path
         d="M 0,1190.64 H 821.28 V 0 H 0 Z"
         id="path594"
         inkscape:connector-curvature="0" />
    </clipPath>
    <clipPath
       clipPathUnits="userSpaceOnUse"
       id="clipPath616">
      <path
         d="M 0,1190.64 H 821.28 V 0 H 0 Z"
         id="path614"
         inkscape:connector-curvature="0" />
    </clipPath>
    <clipPath
       clipPathUnits="userSpaceOnUse"
       id="clipPath636">
      <path
         d="M 0,1190.64 H 821.28 V 0 H 0 Z"
         id="path634"
         inkscape:connector-curvature="0" />
    </clipPath>
    <clipPath
       clipPathUnits="userSpaceOnUse"
       id="clipPath652">
      <path
         d="M 0,1190.64 H 821.28 V 0 H 0 Z"
         id="path650"
         inkscape:connector-curvature="0" />
    </clipPath>
    <clipPath
       clipPathUnits="userSpaceOnUse"
       id="clipPath672">
      <path
         d="M 0,1190.64 H 821.28 V 0 H 0 Z"
         id="path670"
         inkscape:connector-curvature="0" />
    </clipPath>
    <clipPath
       clipPathUnits="userSpaceOnUse"
       id="clipPath704">
      <path
         d="M 0,1190.64 H 821.28 V 0 H 0 Z"
         id="path702"
         inkscape:connector-curvature="0" />
    </clipPath>
    <clipPath
       clipPathUnits="userSpaceOnUse"
       id="clipPath744">
      <path
         d="M 0,1190.64 H 821.28 V 0 H 0 Z"
         id="path742"
         inkscape:connector-curvature="0" />
    </clipPath>
    <clipPath
       clipPathUnits="userSpaceOnUse"
       id="clipPath760">
      <path
         d="M 0,1190.64 H 821.28 V 0 H 0 Z"
         id="path758"
         inkscape:connector-curvature="0" />
    </clipPath>
    <clipPath
       clipPathUnits="userSpaceOnUse"
       id="clipPath776">
      <path
         d="M 0,1190.64 H 821.28 V 0 H 0 Z"
         id="path774"
         inkscape:connector-curvature="0" />
    </clipPath>
    <clipPath
       clipPathUnits="userSpaceOnUse"
       id="clipPath808">
      <path
         d="M 0,1190.64 H 821.28 V 0 H 0 Z"
         id="path806"
         inkscape:connector-curvature="0" />
    </clipPath>
    <clipPath
       clipPathUnits="userSpaceOnUse"
       id="clipPath900">
      <path
         d="M 0,1190.64 H 821.28 V 0 H 0 Z"
         id="path898"
         inkscape:connector-curvature="0" />
    </clipPath>
    <clipPath
       clipPathUnits="userSpaceOnUse"
       id="clipPath932">
      <path
         d="M 0,1190.64 H 821.28 V 0 H 0 Z"
         id="path930"
         inkscape:connector-curvature="0" />
    </clipPath>
    <clipPath
       clipPathUnits="userSpaceOnUse"
       id="clipPath948">
      <path
         d="M 0,1190.64 H 821.28 V 0 H 0 Z"
         id="path946"
         inkscape:connector-curvature="0" />
    </clipPath>
    <clipPath
       clipPathUnits="userSpaceOnUse"
       id="clipPath964">
      <path
         d="M 0,1190.64 H 821.28 V 0 H 0 Z"
         id="path962"
         inkscape:connector-curvature="0" />
    </clipPath>
    <clipPath
       clipPathUnits="userSpaceOnUse"
       id="clipPath992">
      <path
         d="M 0,1190.64 H 821.28 V 0 H 0 Z"
         id="path990"
         inkscape:connector-curvature="0" />
    </clipPath>
    <clipPath
       clipPathUnits="userSpaceOnUse"
       id="clipPath1020">
      <path
         d="M 0,1190.64 H 821.28 V 0 H 0 Z"
         id="path1018"
         inkscape:connector-curvature="0" />
    </clipPath>
    <clipPath
       clipPathUnits="userSpaceOnUse"
       id="clipPath1070">
      <path
         d="M 0,1190.64 H 821.28 V 0 H 0 Z"
         id="path1068"
         inkscape:connector-curvature="0" />
    </clipPath>
    <clipPath
       clipPathUnits="userSpaceOnUse"
       id="clipPath1078">
      <path
         d="m 110.453,111.312 h 89.86 V 33.6631 h -89.86 z"
         id="path1076"
         inkscape:connector-curvature="0" />
    </clipPath>
    <clipPath
       clipPathUnits="userSpaceOnUse"
       id="clipPath1094">
      <path
         d="M 0,1190.64 H 821.28 V 0 H 0 Z"
         id="path1092"
         inkscape:connector-curvature="0" />
    </clipPath>
    <clipPath
       clipPathUnits="userSpaceOnUse"
       id="clipPath1106">
      <path
         d="M 0,1190.64 H 821.28 V 0 H 0 Z"
         id="path1104"
         inkscape:connector-curvature="0" />
    </clipPath>
    <clipPath
       clipPathUnits="userSpaceOnUse"
       id="clipPath1114">
      <path
         d="M 427.841,867.636 H 705.888 V 763.809 H 427.841 Z"
         id="path1112"
         inkscape:connector-curvature="0" />
    </clipPath>
    <clipPath
       clipPathUnits="userSpaceOnUse"
       id="clipPath808-1">
      <path
         d="M 0,1190.64 H 821.28 V 0 H 0 Z"
         id="path806-2"
         inkscape:connector-curvature="0" />
    </clipPath>
    <clipPath
       clipPathUnits="userSpaceOnUse"
       id="clipPath432-7">
      <path
         d="M 0,1190.64 H 821.28 V 0 H 0 Z"
         id="path430-0"
         inkscape:connector-curvature="0" />
    </clipPath>
    <clipPath
       clipPathUnits="userSpaceOnUse"
       id="clipPath244-9">
      <path
         d="M 0,1190.64 H 821.28 V 0 H 0 Z"
         id="path242-3"
         inkscape:connector-curvature="0" />
    </clipPath>
  </defs>
  <sodipodi:namedview
     id="base"
     pagecolor="#ffffff"
     bordercolor="#666666"
     borderopacity="1.0"
     inkscape:pageopacity="0.0"
     inkscape:pageshadow="2"
     inkscape:zoom="0.7071068"
     inkscape:cx="-401.76288"
     inkscape:cy="-63.180781"
     inkscape:document-units="mm"
     inkscape:current-layer="layer1"
     showgrid="false"
     units="px"
     inkscape:window-width="1920"
     inkscape:window-height="1030"
     inkscape:window-x="0"
     inkscape:window-y="0"
     inkscape:window-maximized="1"
     inkscape:snap-bbox="true"
     inkscape:bbox-nodes="true" />
  <metadata
     id="metadata2257">
    <rdf:RDF>
      <cc:Work
         rdf:about="">
        <dc:format>image/svg+xml</dc:format>
        <dc:type
           rdf:resource="http://purl.org/dc/dcmitype/StillImage" />
        <dc:title></dc:title>
      </cc:Work>
    </rdf:RDF>
  </metadata>
  <g
     inkscape:label="Layer 1"
     inkscape:groupmode="layer"
     id="layer1"
     transform="translate(0,-244.08334)">
    <g
       id="g9724"
       transform="translate(32.676047,-19.314582)">
      <path
         inkscape:connector-curvature="0"
         id="path1116"
         style="fill:#0d01eb;fill-opacity:1;fill-rule:nonzero;stroke:none;stroke-width:0.35277778"
         d="m 71.136938,283.31374 v 2.28812 c -0.425101,0.12805 -0.46708,0.56832 -0.693561,0.85584 -1.06504,1.36172 -2.672289,1.87078 -4.223459,1.32573 -1.45838,-0.51223 -2.43804,-1.95685 -2.403469,-3.54365 0.036,-1.58221 1.076319,-2.96263 2.575628,-3.42335 1.555401,-0.47802 3.164422,0.11394 4.13879,1.53493 0.215551,0.31115 0.40463,0.64206 0.606071,0.96238" />
      <path
         inkscape:connector-curvature="0"
         id="path1120"
         style="fill:#0d01eb;fill-opacity:1;fill-rule:nonzero;stroke:none;stroke-width:0.35277778"
         d="m 59.818417,284.30698 c 0.009,2.03659 -1.55399,3.64067 -3.57964,3.66712 -2.085269,0.0314 -3.751789,-1.63053 -3.718629,-3.70769 0.0307,-2.00237 1.667579,-3.60468 3.67489,-3.59692 2.014361,0.01 3.615619,1.61325 3.623379,3.63749" />
      <path
         inkscape:connector-curvature="0"
         id="path1124"
         style="fill:#0d01eb;fill-opacity:1;fill-rule:nonzero;stroke:none;stroke-width:0.35277778"
         d="m 44.874608,280.66946 c 2.071161,-0.0124 3.740859,1.68698 3.68582,3.75144 -0.0543,2.0133 -1.689801,3.57646 -3.712281,3.55318 -2.02565,-0.0219 -3.596918,-1.6256 -3.590568,-3.65937 0.005,-2.0193 1.604079,-3.63114 3.617029,-3.64525" />
      <path
         inkscape:connector-curvature="0"
         id="path1128"
         style="fill:#0d01eb;fill-opacity:1;fill-rule:nonzero;stroke:none;stroke-width:0.35277778"
         d="m 42.397618,304.47628 c 1.006121,2.2225 0.124881,3.65478 -2.336451,3.67206 -2.648648,0.0169 -5.299419,0.0219 -7.947728,0.0219 -1.582561,0 -3.164412,-0.002 -4.74662,-0.005 h -0.460732 c -1.660168,-0.003 -3.320339,-0.005 -4.98052,-0.005 -1.683811,0 -3.367259,0.001 -5.05107,0.003 -4.088688,0.003 -8.1777387,0.005 -12.2681997,-0.006 -3.08751,-0.005 -3.93241005,-1.3589 -2.61126,-4.13244 0.58561,-1.22767 1.17299,-2.45851 1.781881,-3.67524 1.14794,-2.29412 3.062819,-3.64525 5.575649,-3.67171 8.4948897,-0.0938 16.9911897,-0.0938 25.4857307,0 2.511419,0.0282 4.428061,1.37901 5.572828,3.67982 0.67945,1.36172 1.3589,2.72839 1.986492,4.11833" />
      <path
         inkscape:connector-curvature="0"
         id="path1132"
         style="fill:#0d01eb;fill-opacity:1;fill-rule:nonzero;stroke:none;stroke-width:0.35277778"
         d="m 29.084737,290.18567 c 1.007182,0.0265 1.35572,-0.32173 1.290111,-1.30881 -0.0561,-0.82303 0.120298,-1.59596 -1.188511,-1.57903 -4.721579,0.0579 -9.445619,0.0579 -14.167199,-0.003 -1.291521,-0.0155 -1.16523,0.7186 -1.210741,1.56351 -0.0497,0.96026 0.239191,1.35572 1.27177,1.3275 2.33327,-0.0688 4.667951,-0.0205 7.002991,-0.0205 2.33362,0 4.670068,-0.0437 7.001579,0.0205 m 1.296461,-6.87352 c 0.02331,-0.94192 -0.202851,-1.37584 -1.26048,-1.34338 -2.286701,0.0706 -4.576231,0.0222 -6.86399,0.0222 -2.39748,0 -4.79637,0.0466 -7.192441,-0.0222 -1.05727,-0.031 -1.283759,0.40146 -1.260118,1.34338 0.02331,0.90099 0.01831,1.54622 1.260118,1.52894 4.685601,-0.0624 9.37084,-0.0624 14.056431,0 1.241779,0.0173 1.23684,-0.62795 1.26048,-1.52894 m -1.27,-3.86539 c 1.041749,0.0296 1.298221,-0.37183 1.27,-1.32785 -0.0282,-0.89959 -0.0265,-1.52894 -1.26506,-1.51342 -4.681011,0.0642 -9.36308,0.0642 -14.044091,0 -1.229069,-0.0155 -1.2446,0.6029 -1.267878,1.50883 -0.0254,0.95144 0.216958,1.36666 1.265057,1.33244 2.283182,-0.072 4.571302,-0.0219 6.857651,-0.0219 2.396069,0 4.791781,-0.0455 7.184321,0.0219 m 6.060009,-7.90469 c 2.59116,1.12007 3.47522,3.11291 3.38314,5.87869 -0.140748,4.29683 -0.0236,8.59966 -0.0423,12.89932 -0.0141,3.51719 -1.682041,5.1696 -5.233461,5.17736 -7.45807,0.0141 -14.914028,0.0141 -22.371749,0 -3.5517717,-0.008 -5.2196997,-1.66017 -5.2334607,-5.17736 -0.0191,-4.29966 0.0981,-8.60249 -0.0423,-12.89932 -0.0921,-2.76578 0.79198,-4.75862 3.38278,-5.87869 z" />
      <path
         inkscape:connector-curvature="0"
         id="path1136"
         style="fill:#0d01eb;fill-opacity:1;fill-rule:nonzero;stroke:none;stroke-width:0.35277778"
         d="m 27.366636,308.16527 c 1.582211,0.003 3.164422,0.005 4.746623,0.005 -1.582201,0 -3.164412,-0.002 -4.746623,-0.005" />
      <path
         inkscape:connector-curvature="0"
         id="path1140"
         style="fill:#0d01eb;fill-opacity:1;fill-rule:nonzero;stroke:none;stroke-width:0.35277778"
         d="m 26.906047,308.16527 c -1.66017,-0.001 -3.320338,-0.003 -4.980519,-0.003 -1.683801,0 -3.36726,0 -5.051071,0.002 1.683811,-0.002 3.36727,-0.003 5.051071,-0.003 1.660181,0 3.320349,10e-4 4.980519,0.005" />
      <path
         inkscape:connector-curvature="0"
         id="path1144"
         style="fill:#0d01eb;fill-opacity:1;fill-rule:nonzero;stroke:none;stroke-width:0.35277778"
         d="m 2.9337073,284.1211 c 0.003,2.00554 -1.615019,3.66712 -3.60151005,3.69535 -2.03375995,0.0296 -3.74825995,-1.71027 -3.70804995,-3.76238 0.0409,-1.98825 1.7198,-3.63114 3.69217995,-3.61103 1.98543005,0.0187 3.61421005,1.67569 3.61738005,3.67806" />
      <path
         inkscape:connector-curvature="0"
         id="path1148"
         style="fill:#0d01eb;fill-opacity:1;fill-rule:nonzero;stroke:none;stroke-width:0.35277778"
         d="m -8.3331327,284.08371 c 0.0265,2.04752 -1.7070903,3.78107 -3.7345103,3.73274 -1.98825,-0.0451 -3.58598,-1.71344 -3.5687,-3.7218 0.0191,-2.00696 1.65559,-3.64984 3.63891,-3.65161 1.97591,0 3.6392503,1.65241 3.6643003,3.64067" />
      <path
         inkscape:connector-curvature="0"
         id="path1152"
         style="fill:#0d01eb;fill-opacity:1;fill-rule:nonzero;stroke:none;stroke-width:0.35277778"
         d="m -20.780973,281.44737 c 1.53388,1.43686 1.53529,3.92007 0.002,5.36011 -1.60268,1.50706 -4.05942,1.28516 -5.42749,-0.49672 -0.25753,-0.33584 -0.49671,-0.69038 -0.74507,-1.03399 v -2.29094 c 0.24695,-0.34537 0.4826,-0.69814 0.74189,-1.03716 1.36349,-1.78047 3.82341,-2.00378 5.4289,-0.5013" />
    </g>
  </g>
</svg>
